<?xml version="1.0" encoding="UTF-8" standalone="no"?><!DOCTYPE svg PUBLIC "-//W3C//DTD SVG 1.1//EN" "http://www.w3.org/Graphics/SVG/1.1/DTD/svg11.dtd"><svg width="100%" height="100%" viewBox="0 0 343 106" version="1.1" xmlns="http://www.w3.org/2000/svg" xmlns:xlink="http://www.w3.org/1999/xlink" xml:space="preserve" style="fill-rule:evenodd;clip-rule:evenodd;stroke-linejoin:round;stroke-miterlimit:1.41421;"><path d="M336.889,42.8c0,0 -210.348,0 -292.403,0c-17.801,0 -32.232,14.431 -32.232,32.233c0,12.188 0,23.175 0,23.175c0,0 203.024,0 287.962,0c9.727,0 19.054,-3.864 25.932,-10.741c6.877,-6.877 10.741,-16.205 10.741,-25.931c0,-10.294 0,-18.736 0,-18.736Z" style="fill:#ffd500;"/><g transform="matrix(0.75,0,0,0.75,8.63745,-99.646)"><text x="36.788px" y="238.528px" style="font-family:'Consolas-Bold', 'Consolas', monospace;font-weight:700;font-size:141.482px;fill:#00b5b6;">R<tspan x="100.993px 165.199px " y="238.528px 238.528px ">eg</tspan></text><text x="229.404px" y="238.528px" style="font-family:'Consolas-Bold', 'Consolas', monospace;font-weight:700;font-size:141.482px;fill:#e64e4e;">E</text><text x="293.609px" y="238.528px" style="font-family:'Consolas-Bold', 'Consolas', monospace;font-weight:700;font-size:145.333px;fill:#e64e4e;">x</text></g><text x="-0.282px" y="60.018px" style="font-family:'FranklinGothic-DemiCond', 'Franklin Gothic Demi Cond', sans-serif;font-stretch:condensed;font-size:80px;fill:#ff8b00;">^</text><text x="291.106px" y="79.454px" style="font-family:'FranklinGothic-DemiCond', 'Franklin Gothic Demi Cond', sans-serif;font-stretch:condensed;font-size:106px;fill:#ff8b00;">$</text></svg>