<?xml version="1.0" encoding="UTF-8" standalone="no"?><!DOCTYPE svg PUBLIC "-//W3C//DTD SVG 1.1//EN" "http://www.w3.org/Graphics/SVG/1.1/DTD/svg11.dtd"><svg width="100%" height="100%" viewBox="0 0 343 106" version="1.1" xmlns="http://www.w3.org/2000/svg" xmlns:xlink="http://www.w3.org/1999/xlink" xml:space="preserve" style="fill-rule:evenodd;clip-rule:evenodd;stroke-linejoin:round;stroke-miterlimit:1.41421;"><path d="M333.159,41.202c0,0 -210.347,0 -292.402,0c-17.802,0 -32.233,14.431 -32.233,32.232c0,12.189 0,23.176 0,23.176c0,0 203.025,0 287.963,0c9.726,0 19.054,-3.864 25.931,-10.741c6.878,-6.878 10.741,-16.206 10.741,-25.932c0,-10.293 0,-18.735 0,-18.735Z" style="fill:#ffd500;"/><g transform="matrix(0.75,0,0,0.75,4.90805,-101.244)"><text x="36.788px" y="238.528px" style="font-family:'Consolas-Bold', 'Consolas', monospace;font-weight:700;font-size:141.482px;fill:#00b5b6;">R<tspan x="100.993px 165.199px " y="238.528px 238.528px ">eg</tspan></text><text x="229.404px" y="238.528px" style="font-family:'Consolas-Bold', 'Consolas', monospace;font-weight:700;font-size:141.482px;fill:#e64e4e;">E</text><text x="293.609px" y="238.528px" style="font-family:'Consolas-Bold', 'Consolas', monospace;font-weight:700;font-size:145.333px;fill:#e64e4e;">x</text></g><text x="-3.302px" y="53.625px" style="font-family:'Consolas', monospace;font-size:80px;fill:#ff8b00;">^</text><text x="287.377px" y="77.856px" style="font-family:'Consolas', monospace;font-size:106px;fill:#ff8b00;">$</text></svg>